HIERARCHY
ROOT pelvis
{
  OFFSET 0 0 0
  CHANNELS 6 Xposition Yposition Zposition Zrotation Xrotation Yrotation
  JOINT pelvis_right_femur
  {
    OFFSET -11.43119 -3.542788 0.2090856
    CHANNELS 3 Zrotation Xrotation Yrotation
    JOINT right_femur_tibia
    {
      OFFSET -1.028693 -40.73281 5
      CHANNELS 3 Zrotation Xrotation Yrotation
      JOINT right_tibia_foot
      {
        OFFSET -0.5013517 -42.05707 -5
        CHANNELS 3 Zrotation Xrotation Yrotation
        End Site
        {
          OFFSET 0 -5 10
        }
      }
    }
  }
  JOINT pelvis_left_femur
  {
    OFFSET 11.43119 -3.542788 0.2090856
    CHANNELS 3 Zrotation Xrotation Yrotation
    JOINT left_femur_tibia
    {
      OFFSET 1.028693 -40.73281 5
      CHANNELS 3 Zrotation Xrotation Yrotation
      JOINT left_tibia_foot
      {
        OFFSET 0.3200228 -42.98253 -5
        CHANNELS 3 Zrotation Xrotation Yrotation
        End Site
        {
          OFFSET 0 -5 10
        }
      }
    }
  }
  JOINT pelvis_spine1
  {
    OFFSET 0 8.64413 -3.209807
    CHANNELS 3 Zrotation Xrotation Yrotation
    JOINT spine1
    {
      OFFSET 0 29.53957 -1.762685
      CHANNELS 3 Zrotation Xrotation Yrotation
      JOINT spine2
      {
        OFFSET 0 16.36153 -0.1422377
        CHANNELS 3 Zrotation Xrotation Yrotation
        JOINT neck
        {
          OFFSET 0 11.60093 5
          CHANNELS 3 Zrotation Xrotation Yrotation
          End Site
          {
            OFFSET 0 20 0
          }
        }
      }
      JOINT right_manubrium
      {
        OFFSET -4.671311 15.89868 4
        CHANNELS 3 Zrotation Xrotation Yrotation
        JOINT right_clavicle
        {
          OFFSET -13.601 1.573642 -2.74176
          CHANNELS 3 Zrotation Xrotation Yrotation
          JOINT right_humerus
          {
            OFFSET -0.06331682 -27.72702 2.252146
            CHANNELS 3 Zrotation Xrotation Yrotation
            JOINT right_radius
            {
              OFFSET -0.5696302 -23.92083 0.4042105
              CHANNELS 3 Zrotation Xrotation Yrotation
              End Site
              {
                OFFSET 0 -15 0
              }
            }
          }
        }
      }
      JOINT left_manubrium
      {
        OFFSET 4.671311 15.89868 4
        CHANNELS 3 Zrotation Xrotation Yrotation
        JOINT left_clavicle
        {
          OFFSET 13.601 1.573642 -2.74176
          CHANNELS 3 Zrotation Xrotation Yrotation
          JOINT left_humerus
          {
            OFFSET 0.000209614 -29.01858 1.101395
            CHANNELS 3 Zrotation Xrotation Yrotation
            JOINT left_radius
            {
              OFFSET -0.2288314 -24.59216 1.790347
              CHANNELS 3 Zrotation Xrotation Yrotation
              End Site
              {
                OFFSET 0 -15 0
              }
            }
          }
        }
      }
    }
  }
}
MOTION
Frames: 9
Frame Time: 0.0416666666667
0.02269539 48.38647 0.06665005 -3.172183 -23.35708 -1.172737 -48.847 -58.09975 -37.18019 -180 81.51975 -180 10.77967 2.297993 2.902301 61.44727 -48.81992 48.38374 -180 72.29584 -180 -7.203296 -7.423974 -12.76889 -0.5758342 16.10917 3.08712 9.964449 15.4085 -10.66 -13.52661 5.896419 10.34644 4.526913 -29.81717 0.9330749 15.3788 -12.43256 32.93383 -65.19844 -36.22794 13.48577 0 -63.74848 0 13.2249 -23.47745 -13.83351 -29.17849 -34.0948 -6.57821 45.84303 -30.98114 -30.93831 0 -63.80749 0 -10.44162 -14.68601 10.04858
-0.0570211 48.27171 0.06475752 -2.922507 -23.29975 -1.199713 -49.00653 -58.48049 -37.09521 -180 81.35962 -180 10.77972 2.287705 2.819688 61.45251 -48.81067 48.5372 -180 72.25752 -180 -7.234362 -7.420501 -12.76568 -0.9515819 16.01134 3.319694 10.01753 15.26383 -10.51719 -13.64816 6.066003 11.10884 4.479904 -29.44571 1.782655 15.38625 -12.30877 32.74321 -65.11927 -36.23513 13.72184 0 -63.71581 0 13.79572 -23.42001 -13.62309 -28.93664 -34.11666 -6.246158 46.07713 -31.10688 -30.67458 0 -64.51746 0 -9.821978 -14.72342 10.8116
-0.02528908 48.22987 0.06034781 -2.808854 -23.24808 -1.212567 -49.05687 -58.72986 -36.9089 -180 81.28858 -180 10.77745 2.293745 2.713808 61.46329 -48.78959 48.70778 -180 72.21854 -180 -7.261559 -7.416837 -12.77714 -1.09051 15.94158 3.42312 10.14071 15.16389 -10.42119 -13.8727 6.186452 12.08446 4.39226 -29.03754 2.878108 15.39754 -12.187 32.54587 -65.00834 -36.18923 13.99672 0 -63.60117 0 14.45924 -23.31836 -13.31081 -28.63688 -34.10614 -6.029788 46.45182 -31.16411 -30.48152 0 -64.92044 0 -9.406237 -14.75059 11.47983
0.02087857 48.22172 0.05018022 -2.748221 -23.19601 -1.214401 -49.0246 -58.90052 -36.69891 -180 81.2775 -180 10.77363 2.309017 2.61863 61.4732 -48.76979 48.86125 -180 72.20444 -180 -7.278878 -7.410265 -12.79047 -1.104279 15.89926 3.469037 10.25309 15.09426 -10.28553 -14.23156 6.277438 13.32555 4.25747 -28.59559 4.274721 15.37873 -12.0811 32.42207 -64.86257 -36.14253 14.34374 0 -63.41058 0 15.21869 -23.15919 -12.87588 -28.27533 -33.96303 -5.967687 46.84651 -31.11494 -30.43518 0 -65.08438 0 -9.069981 -14.86019 12.11967
0.0593125 48.22012 0.03139799 -2.683096 -23.13269 -1.201666 -49.05549 -59.02999 -36.59564 -180 81.29416 -180 10.76625 2.336008 2.561287 61.48212 -48.77377 49.02015 -180 72.20723 -180 -7.296825 -7.404654 -12.79775 -1.058091 15.89208 3.499264 10.30577 15.01108 -10.08355 -14.71261 6.353434 14.91573 4.105191 -28.09123 6.076842 15.42614 -12.1215 32.26233 -64.7646 -36.137 14.58771 0 -63.35259 0 16.02091 -22.99099 -12.29045 -27.98205 -33.78654 -6.012372 47.31503 -30.91448 -30.3349 0 -65.06565 0 -8.785128 -15.06774 12.75358
0.09472376 48.20635 0.008721811 -2.629018 -23.08097 -1.207104 -49.1848 -59.12986 -36.63462 -180 81.29725 -180 10.75457 2.361539 2.545184 61.48597 -48.77353 49.15999 -180 72.21362 -180 -7.312198 -7.39832 -12.81503 -0.925202 15.92726 3.540223 10.25577 14.89998 -9.796895 -15.25248 6.504085 16.81246 3.979108 -27.50414 8.250301 15.48569 -12.32317 31.98632 -64.7251 -36.19808 14.76233 0 -63.60355 0 16.8625 -22.84559 -11.51717 -27.77695 -33.66196 -6.064133 47.89485 -30.57225 -30.06093 0 -65.05175 0 -8.549097 -15.38637 13.34992
0.09581607 48.19463 -0.004819608 -2.566441 -23.04533 -1.217559 -49.36664 -59.18381 -36.78224 -180 81.29055 -180 10.74354 2.391745 2.551863 61.5119 -48.74958 49.27023 -180 72.22071 -180 -7.321066 -7.387083 -12.82767 -0.7800362 15.96891 3.649161 10.08636 14.81384 -9.405579 -15.79422 6.764129 18.8827 3.884964 -26.84394 10.64446 15.503 -12.57288 31.57684 -64.7112 -36.23103 14.94735 0 -64.03034 0 17.70609 -22.68052 -10.5701 -27.65558 -33.61324 -6.122511 48.55106 -30.13095 -29.62035 0 -65.19122 0 -8.374909 -15.81928 13.85342
0.0782885 48.18431 -0.007487875 -2.513924 -23.00705 -1.239842 -49.5934 -59.21521 -37.02302 -180 81.26502 -180 10.72739 2.421102 2.607027 61.53583 -48.72654 49.35415 -180 72.22693 -180 -7.334447 -7.380958 -12.82079 -0.669959 16.01485 3.792519 9.913379 14.74563 -8.962443 -16.26162 7.094434 20.92164 3.823169 -26.12412 13.01854 15.54989 -12.89726 30.97538 -64.79461 -36.12368 14.99743 0 -64.45279 0 18.45188 -22.44989 -9.490411 -27.52304 -33.67842 -6.065232 49.35275 -29.5528 -28.9427 0 -65.35611 0 -8.230824 -16.32549 14.24668
0.03101092 48.21181 0.04172382 -2.460235 -22.90952 -1.266979 -49.83954 -59.2377 -37.32256 -180 81.22655 -180 10.70943 2.446142 2.682268 61.58324 -48.69191 49.42424 -180 72.2454 -180 -7.345435 -7.376639 -12.79925 -0.5836979 16.10517 3.919357 9.673662 14.53041 -8.544041 -16.6343 7.441846 22.78352 3.778209 -25.41906 15.19405 15.64202 -13.12324 30.20689 -64.89653 -35.77839 15.03049 0 -64.67554 0 19.09479 -22.11017 -8.316388 -27.23101 -33.91446 -5.684246 50.50822 -28.72885 -27.87881 0 -65.3434 0 -8.125164 -16.88381 14.51174
